<svg preserveAspectRatio="xMidYMid meet" width="100%" height="100%" overflow="visible" style="display: block;" viewBox="0 0 11.5 11.5" fill="none" xmlns="http://www.w3.org/2000/svg">
<path id="icon" d="M0.75 7C1.16421 7 1.5 7.33579 1.5 7.75V9.75C1.5 9.88807 1.61193 10 1.75 10H3.75C4.16421 10 4.5 10.3358 4.5 10.75C4.5 11.1642 4.16421 11.5 3.75 11.5H1.75C0.783502 11.5 -7.35874e-08 10.7165 0 9.75V7.75C5.43175e-08 7.33579 0.335787 7 0.75 7ZM10.75 7C11.1642 7 11.5 7.33579 11.5 7.75V9.75C11.5 10.7165 10.7165 11.5 9.75 11.5H7.75C7.33579 11.5 7 11.1642 7 10.75C7 10.3358 7.33579 10 7.75 10H9.75C9.88807 10 10 9.88807 10 9.75V7.75C10 7.33579 10.3358 7 10.75 7ZM5.75 3C6.1642 3.00002 6.5 3.3358 6.5 3.75V5H7.75C8.1642 5.00002 8.5 5.3358 8.5 5.75C8.5 6.1642 8.1642 6.49998 7.75 6.5H6.5V7.75C6.5 8.1642 6.1642 8.49998 5.75 8.5C5.3358 8.49998 5 8.1642 5 7.75V6.5H3.75C3.33579 6.5 3 6.16421 3 5.75C3 5.33579 3.33579 5 3.75 5H5V3.75C5 3.3358 5.3358 3.00002 5.75 3ZM3.75 0C4.16421 0 4.5 0.335786 4.5 0.75C4.5 1.16421 4.16421 1.5 3.75 1.5H1.75C1.61193 1.5 1.5 1.61193 1.5 1.75V3.75C1.5 4.16421 1.16421 4.5 0.75 4.5C0.335786 4.5 0 4.16421 0 3.75V1.75C1.61067e-08 0.783502 0.783502 0 1.75 0H3.75ZM9.75 0C10.7165 5.83536e-08 11.5 0.783502 11.5 1.75V3.75C11.5 4.16421 11.1642 4.5 10.75 4.5C10.3358 4.5 10 4.16421 10 3.75V1.75C10 1.61193 9.88807 1.5 9.75 1.5H7.75C7.33579 1.5 7 1.16421 7 0.75C7 0.335786 7.33579 -3.88156e-10 7.75 0H9.75Z" fill="currentColor"/>
</svg>
