<svg preserveAspectRatio="xMidYMid meet" width="100%" height="100%" overflow="visible" style="display: block;" viewBox="0 0 13.5 11.5" fill="none" xmlns="http://www.w3.org/2000/svg">
<path id="icon" fill-rule="evenodd" clip-rule="evenodd" d="M6.75 0C6.33579 0 6 0.335786 6 0.75L6 10.75C6 11.1642 6.33579 11.5 6.75 11.5C7.16421 11.5 7.5 11.1642 7.5 10.75L7.5 0.75C7.5 0.335786 7.16421 0 6.75 0ZM3 10.75L3 5.75C3 5.33579 3.33579 5 3.75 5C4.16421 5 4.5 5.33579 4.5 5.75V10.75C4.5 11.1642 4.16421 11.5 3.75 11.5C3.33579 11.5 3 11.1642 3 10.75ZM0 10.75V8.75C0 8.33579 0.335786 8 0.75 8C1.16421 8 1.5 8.33579 1.5 8.75V10.75C1.5 11.1642 1.16421 11.5 0.75 11.5C0.335786 11.5 0 11.1642 0 10.75ZM9 10.75V3.75C9 3.33579 9.33579 3 9.75 3C10.1642 3 10.5 3.33579 10.5 3.75V10.75C10.5 11.1642 10.1642 11.5 9.75 11.5C9.33579 11.5 9 11.1642 9 10.75ZM12 7.75V10.75C12 11.1642 12.3358 11.5 12.75 11.5C13.1642 11.5 13.5 11.1642 13.5 10.75V7.75C13.5 7.33579 13.1642 7 12.75 7C12.3358 7 12 7.33579 12 7.75Z" fill="currentColor"/>
</svg>
