<svg preserveAspectRatio="xMidYMid meet" width="100%" height="100%" overflow="visible" style="display: block;" viewBox="0 0 14 14" fill="none" xmlns="http://www.w3.org/2000/svg">
<path id="icon" fill-rule="evenodd" clip-rule="evenodd" d="M7 14C10.866 14 14 10.866 14 7C14 3.13401 10.866 0 7 0C3.13401 0 0 3.13401 0 7C0 10.866 3.13401 14 7 14ZM5.93934 6.99952L4.21922 8.71964C3.92662 9.01246 3.92664 9.48745 4.21922 9.7803C4.51204 10.0731 4.98697 10.073 5.27988 9.7803L7 8.06018L8.72012 9.7803C9.01303 10.073 9.48796 10.0731 9.78078 9.7803C10.0734 9.48745 10.0734 9.01247 9.78078 8.71964L8.06066 6.99952L9.78009 5.28009C10.073 4.98719 10.073 4.51232 9.78009 4.21943C9.48718 3.92678 9.01224 3.92661 8.71943 4.21943L7 5.93886L5.28057 4.21943C4.98776 3.92661 4.51282 3.92677 4.21991 4.21943C3.92702 4.51232 3.92702 4.98719 4.21991 5.28009L5.93934 6.99952Z" fill="currentColor"/>
</svg>
