<svg preserveAspectRatio="xMidYMid meet" width="100%" height="100%" overflow="visible" style="display: block;" viewBox="0 0 7.49977 7.49977" fill="none" xmlns="http://www.w3.org/2000/svg">
<path id="icon" d="M6.21967 0.219667C6.51256 -0.0732152 6.98732 -0.0732163 7.28021 0.219667C7.57288 0.512575 7.57302 0.987394 7.28021 1.28021L4.81049 3.74994L7.28021 6.21967C7.57288 6.51258 7.57303 6.98739 7.28021 7.28021C6.98739 7.57301 6.51257 7.57288 6.21967 7.28021L3.74994 4.81049L1.28021 7.28021C0.987394 7.57303 0.512576 7.57288 0.219667 7.28021C-0.0732239 6.98732 -0.0732208 6.51256 0.219667 6.21967L2.68939 3.74994L0.219667 1.28021C-0.0732149 0.987324 -0.0732116 0.512559 0.219667 0.219667C0.512558 -0.0732248 0.98732 -0.0732197 1.28021 0.219667L3.74994 2.68939L6.21967 0.219667Z" fill="currentColor"/>
</svg>
