<svg preserveAspectRatio="xMidYMid meet" width="100%" height="100%" overflow="visible" style="display: block;" viewBox="0 0 32 32" fill="none" xmlns="http://www.w3.org/2000/svg">
<g id="icon">
<path d="M12 12H8V8H12V12Z" fill="var(--fill-0, #0A7DFF)"/>
<path fill-rule="evenodd" clip-rule="evenodd" d="M16 12H12V16H8V20H12V24H16V20H20V24H24V20H20V16H24V12H20V8H16V12ZM16 16H12V20H16V16ZM16 16V12H20V16H16Z" fill="var(--fill-0, #0A7DFF)"/>
<path fill-rule="evenodd" clip-rule="evenodd" d="M4 0H0V4H4V8H0V12H4V16H0V20H4V24H0V28H4V32H8V28H12V32H16V28H20V32H24V28H28V32H32V28H28V24H32V20H28V16H32V12H28V8L32 8V4L28 4V0H24V4L20 4V0H16V4L12 4V0H8V4H4V0ZM8 8H4V12H8V16H4V20H8V24H4V28H8V24H12V28H16V24H20V28H24V24H28V20H24V16H28V12H24V8L28 8V4L24 4V8L20 8V4H16V8L12 8V4H8V8Z" fill="var(--fill-0, #0A7DFF)"/>
</g>
</svg>
