<svg preserveAspectRatio="xMidYMid meet" width="100%" height="100%" overflow="visible" style="display: block;" viewBox="0 0 13.5 11.4998" fill="none" xmlns="http://www.w3.org/2000/svg">
<path id="icon" d="M9.75 1.99988C11.821 1.99988 13.4999 3.67889 13.5 5.74988C13.5 7.82094 11.8211 9.49987 9.75 9.49988H8.56055L9.28027 10.2196C9.57315 10.5125 9.57311 10.9873 9.28027 11.2802C8.98738 11.573 8.51262 11.573 8.21973 11.2802L6.21973 9.28015C6.07912 9.13951 6 8.94876 6 8.74988C6.00003 8.55102 6.07911 8.36023 6.21973 8.21961L8.21973 6.21961C8.5126 5.9268 8.98739 5.9268 9.28027 6.21961C9.57315 6.51248 9.57311 6.98726 9.28027 7.28015L8.56055 7.99988H9.75C10.9926 7.99987 12 6.99252 12 5.74988C11.9999 4.5073 10.9926 3.49988 9.75 3.49988C9.33579 3.49988 9 3.16409 9 2.74988C9.00006 2.33572 9.33583 1.99988 9.75 1.99988ZM4.21973 0.219608C4.51261 -0.0732004 4.9874 -0.0732049 5.28027 0.219608L7.28027 2.21961C7.57314 2.51248 7.5731 2.98726 7.28027 3.28015L5.28027 5.28015C4.98738 5.57305 4.51262 5.57304 4.21973 5.28015C3.92689 4.98726 3.92685 4.51248 4.21973 4.21961L4.93945 3.49988H3.75C2.50741 3.49989 1.50007 4.5073 1.5 5.74988C1.50001 6.99251 2.50737 7.99988 3.75 7.99988C4.16417 7.99988 4.49994 8.33572 4.5 8.74988C4.5 9.16409 4.16421 9.49988 3.75 9.49988C1.67895 9.49988 1.04681e-05 7.82093 0 5.74988C6.70863e-05 3.67888 1.67898 1.99989 3.75 1.99988H4.93945L4.21973 1.28015C3.92689 0.987257 3.92685 0.512482 4.21973 0.219608Z" fill="currentColor"/>
</svg>
