<svg preserveAspectRatio="xMidYMid meet" width="100%" height="100%" overflow="visible" style="display: block;" viewBox="0 0 10.8323 9.5" fill="none" xmlns="http://www.w3.org/2000/svg">
<path id="icon" fill-rule="evenodd" clip-rule="evenodd" d="M9.33226 0.75V8.75C9.33226 9.16421 9.66805 9.5 10.0823 9.5C10.4965 9.5 10.8323 9.16421 10.8323 8.75V0.75C10.8323 0.335786 10.4965 0 10.0823 0C9.66805 0 9.33226 0.335786 9.33226 0.75ZM8.08227 7.39711V2.10289C8.08227 1.17029 8.08227 0.703994 7.88687 0.439232C7.7165 0.208404 7.45521 0.0618615 7.16941 0.0368611C6.8416 0.00818533 6.44372 0.251337 5.64795 0.73764L1.31632 3.38475C0.57767 3.83614 0.208346 4.06184 0.0824404 4.3524C-0.0274801 4.60607 -0.0274801 4.89393 0.0824404 5.1476C0.208346 5.43816 0.57767 5.66386 1.31632 6.11525L5.64795 8.76236C6.44372 9.24866 6.8416 9.49181 7.16941 9.46314C7.45521 9.43814 7.7165 9.2916 7.88687 9.06077C8.08227 8.79601 8.08227 8.32971 8.08227 7.39711Z" fill="currentColor"/>
</svg>
