<svg preserveAspectRatio="xMidYMid meet" width="100%" height="100%" overflow="visible" style="display: block;" viewBox="0 0 13.5 11.5001" fill="none" xmlns="http://www.w3.org/2000/svg">
<path id="icon" d="M4.08691 8.4721e-05C4.29578 8.4721e-05 4.52268 -0.00424025 4.74414 0.0489128C4.92263 0.0917654 5.09347 0.162004 5.25 0.257897C5.44419 0.376897 5.60133 0.540863 5.74902 0.688561L6.31152 1.25106C6.40258 1.34212 6.45385 1.393 6.49414 1.42977C6.51814 1.45167 6.5296 1.46041 6.5332 1.46298C6.55546 1.47662 6.58009 1.48712 6.60547 1.49325C6.60851 1.49382 6.62229 1.49555 6.65723 1.49716C6.71173 1.49965 6.78426 1.50008 6.91309 1.50008H11.1504C11.4179 1.50008 11.6639 1.5 11.8682 1.51669C12.0812 1.53411 12.3147 1.57324 12.5449 1.69051C12.874 1.85825 13.1418 2.12609 13.3096 2.45516C13.4268 2.68532 13.466 2.9189 13.4834 3.13192C13.5001 3.33618 13.5 3.58223 13.5 3.84969V9.15048C13.5 9.41794 13.5001 9.66399 13.4834 9.86825C13.466 10.0813 13.4268 10.3148 13.3096 10.545C13.1418 10.8741 12.874 11.1419 12.5449 11.3097C12.3147 11.427 12.0812 11.467 11.8682 11.4845C11.6639 11.5011 11.4179 11.5001 11.1504 11.5001H2.34961C2.08211 11.5001 1.83611 11.5011 1.63184 11.4845C1.41877 11.467 1.18529 11.427 0.955078 11.3097C0.625986 11.1419 0.358171 10.8741 0.19043 10.545C0.0731684 10.3148 0.0340274 10.0813 0.0166016 9.86825C-8.18134e-05 9.66399 -5.23058e-07 9.41794 2.9068e-08 9.15048V2.34969C-5.52084e-07 2.08223 -8.68054e-05 1.83618 0.0166016 1.63192C0.0340328 1.4189 0.0731585 1.18532 0.19043 0.955163C0.35818 0.626087 0.625993 0.358251 0.955078 0.190514C1.18526 0.0732413 1.4188 0.0341132 1.63184 0.0166863C1.83611 -3.31076e-06 2.08211 8.41579e-05 2.34961 8.4721e-05H4.08691ZM2.34961 6.00008C2.05745 6.00009 1.88298 6.00028 1.75391 6.01083C1.63384 6.02066 1.62034 6.03577 1.63672 6.02743C1.5897 6.05139 1.55131 6.08979 1.52734 6.1368C1.53561 6.12053 1.52056 6.13417 1.51074 6.25399C1.5002 6.38305 1.5 6.55758 1.5 6.84969V9.15048C1.5 9.44258 1.5002 9.61712 1.51074 9.74618C1.52058 9.86625 1.53569 9.87975 1.52734 9.86337C1.55131 9.9104 1.58969 9.94877 1.63672 9.97274C1.62039 9.96443 1.63394 9.97951 1.75391 9.98934C1.88298 9.99989 2.05744 10.0001 2.34961 10.0001H11.1504C11.4426 10.0001 11.617 9.99989 11.7461 9.98934C11.8661 9.97951 11.8796 9.96443 11.8633 9.97274C11.9103 9.94877 11.9487 9.9104 11.9727 9.86337C11.9643 9.87975 11.9794 9.86625 11.9893 9.74618C11.9998 9.61712 12 9.44258 12 9.15048V6.84969C12 6.55758 11.9998 6.38305 11.9893 6.25399C11.9794 6.13417 11.9644 6.12053 11.9727 6.1368C11.9487 6.08979 11.9103 6.05139 11.8633 6.02743C11.8797 6.03577 11.8662 6.02066 11.7461 6.01083C11.617 6.00028 11.4426 6.00009 11.1504 6.00008H2.34961ZM2.34961 1.50008C2.05745 1.50009 1.88298 1.50028 1.75391 1.51083C1.63384 1.52066 1.62034 1.53577 1.63672 1.52743C1.5897 1.55139 1.55131 1.58979 1.52734 1.6368C1.53561 1.62053 1.52056 1.63417 1.51074 1.75399C1.5002 1.88305 1.5 2.05758 1.5 2.34969V4.53036C1.54464 4.52452 1.58865 4.52022 1.63184 4.51669C1.83611 4.5 2.08211 4.50008 2.34961 4.50008H11.1504C11.4179 4.50008 11.6639 4.5 11.8682 4.51669C11.9113 4.52022 11.9554 4.52452 12 4.53036V3.84969C12 3.55758 11.9998 3.38305 11.9893 3.25399C11.9794 3.13417 11.9644 3.12053 11.9727 3.1368C11.9487 3.08979 11.9103 3.05139 11.8633 3.02743C11.8797 3.03577 11.8662 3.02066 11.7461 3.01083C11.617 3.00028 11.4426 3.00009 11.1504 3.00008H6.91309C6.70421 3.00008 6.47732 3.00441 6.25586 2.95126C6.07736 2.9084 5.90653 2.83817 5.75 2.74227C5.55581 2.62326 5.39868 2.45931 5.25098 2.31161L4.68848 1.74911C4.59741 1.65804 4.54615 1.60717 4.50586 1.5704C4.4818 1.54844 4.47035 1.53972 4.4668 1.53719C4.44454 1.52356 4.4199 1.51305 4.39453 1.50692C4.39146 1.50634 4.37765 1.50462 4.34277 1.50301C4.28827 1.50052 4.21573 1.50008 4.08691 1.50008H2.34961Z" fill="currentColor"/>
</svg>
