<svg preserveAspectRatio="xMidYMid meet" width="100%" height="100%" overflow="visible" style="display: block;" viewBox="0 0 8.08227 9.43082" fill="none" xmlns="http://www.w3.org/2000/svg">
<path id="icon" d="M0 2.0683V7.36252C0 8.29512 0 8.76142 0.195405 9.02618C0.365766 9.25701 0.62706 9.40355 0.912856 9.42855C1.24067 9.45723 1.63855 9.21407 2.43432 8.72777L6.76595 6.08066C7.5046 5.62927 7.87392 5.40357 7.99983 5.11301C8.10975 4.85934 8.10975 4.57148 7.99983 4.31781C7.87392 4.02725 7.5046 3.80156 6.76595 3.35016L2.43432 0.703052C1.63855 0.216749 1.24067 -0.0264027 0.912856 0.00227302C0.62706 0.0272735 0.365766 0.173816 0.195405 0.404644C0 0.669406 0 1.13571 0 2.0683Z" fill="currentColor"/>
</svg>
