<svg preserveAspectRatio="xMidYMid meet" width="100%" height="100%" overflow="visible" style="display: block;" viewBox="0 0 9.5 9.5" fill="none" xmlns="http://www.w3.org/2000/svg">
<path id="icon" d="M4 8.75V5.5H0.75C0.335786 5.5 0 5.16421 0 4.75C9.6639e-08 4.33579 0.335786 4 0.75 4H4V0.75C4 0.335787 4.33579 9.63357e-08 4.75 0C5.16421 1.4108e-08 5.5 0.335786 5.5 0.75V4H8.75C9.16421 4 9.5 4.33579 9.5 4.75C9.5 5.16421 9.16421 5.5 8.75 5.5H5.5V8.75C5.5 9.16421 5.16421 9.5 4.75 9.5C4.33579 9.5 4 9.16421 4 8.75Z" fill="currentColor"/>
</svg>
