<svg preserveAspectRatio="xMidYMid meet" width="100%" height="100%" overflow="visible" style="display: block;" viewBox="0 0 11.5 11.4999" fill="none" xmlns="http://www.w3.org/2000/svg">
<path id="icon" d="M7.21973 0.219661C7.51262 -0.0732158 7.98738 -0.0732248 8.28027 0.219661L11.2803 3.21966C11.4209 3.36031 11.5 3.55104 11.5 3.74993C11.5 3.94882 11.4209 4.13957 11.2803 4.28021L8.28027 7.28021C7.98739 7.57305 7.51261 7.57304 7.21973 7.28021C6.92685 6.98732 6.92686 6.51256 7.21973 6.21966L8.93945 4.49993H4.25C2.73122 4.49994 1.5 5.73116 1.5 7.24993C1.50004 8.76868 2.73125 9.99993 4.25 9.99993H7.75C8.16421 9.99993 8.5 10.3357 8.5 10.7499C8.49996 11.1641 8.16419 11.4999 7.75 11.4999H4.25C1.90282 11.4999 4.41752e-05 9.5971 0 7.24993C-1.75671e-07 4.90273 1.90279 2.99994 4.25 2.99993H8.93945L7.21973 1.28021C6.92684 0.987327 6.92687 0.512558 7.21973 0.219661Z" fill="currentColor"/>
</svg>
