<svg preserveAspectRatio="xMidYMid meet" width="100%" height="100%" overflow="visible" style="display: block;" viewBox="0 0 12.5 13.5" fill="none" xmlns="http://www.w3.org/2000/svg">
<path id="icon" d="M9.75 8C10.1642 8 10.5 8.33579 10.5 8.75V10H11.75C12.1642 10 12.5 10.3358 12.5 10.75C12.5 11.1642 12.1642 11.5 11.75 11.5H10.5V12.75C10.5 13.1642 10.1642 13.5 9.75 13.5C9.33579 13.5 9 13.1642 9 12.75V11.5H7.75C7.33579 11.5 7 11.1642 7 10.75C7 10.3358 7.33579 10 7.75 10H9V8.75C9 8.33579 9.33579 8 9.75 8ZM8.04297 0C8.37446 2.00219e-05 8.69236 0.131808 8.92676 0.366211L10.1338 1.57324C10.3682 1.80764 10.5 2.12554 10.5 2.45703V5.25C10.5 5.66421 10.1642 6 9.75 6C9.33579 6 9 5.66421 9 5.25V2.56055L7.93945 1.5H7.5V2.75C7.5 3.44036 6.94036 4 6.25 4H3.25C2.55964 4 2 3.44036 2 2.75V1.5H1.5V10H2V7.75C2 7.05964 2.55964 6.5 3.25 6.5H6.75C7.16421 6.5 7.5 6.83579 7.5 7.25C7.5 7.66421 7.16421 8 6.75 8H3.5V10H4.75C5.16421 10 5.5 10.3358 5.5 10.75C5.5 11.1642 5.16421 11.5 4.75 11.5H1.25C0.559644 11.5 4.0266e-09 10.9404 0 10.25V1.25C6.4426e-08 0.559644 0.559644 0 1.25 0H8.04297ZM3.5 2.5H6V1.5H3.5V2.5Z" fill="currentColor"/>
</svg>
