<svg preserveAspectRatio="xMidYMid meet" width="100%" height="100%" overflow="visible" style="display: block;" viewBox="0 0 11.5 12.5" fill="none" xmlns="http://www.w3.org/2000/svg">
<path id="icon" d="M9.04297 0C9.37446 2.00141e-05 9.69236 0.131808 9.92676 0.366211L11.1338 1.57324C11.3682 1.80764 11.5 2.12554 11.5 2.45703V11.25C11.5 11.9404 10.9404 12.5 10.25 12.5H1.25C0.559644 12.5 8.0532e-09 11.9404 0 11.25V1.25C9.6639e-08 0.559644 0.559644 4.0266e-09 1.25 0H9.04297ZM1.5 11H2.5V8.75C2.5 8.05964 3.05964 7.5 3.75 7.5H7.75C8.44036 7.5 9 8.05964 9 8.75V11H10V2.56055L8.93945 1.5H8V2.75C8 3.44036 7.44036 4 6.75 4H3.75C3.05964 4 2.5 3.44036 2.5 2.75V1.5H1.5V11ZM4 11H7.5V9H4V11ZM4 2.5H6.5V1.5H4V2.5Z" fill="currentColor"/>
</svg>
