<svg preserveAspectRatio="xMidYMid meet" width="100%" height="100%" overflow="visible" style="display: block;" viewBox="0 0 11.75 7.5" fill="none" xmlns="http://www.w3.org/2000/svg">
<path id="icon" fill-rule="evenodd" clip-rule="evenodd" d="M0 0.75V6.75C0 7.16421 0.335787 7.5 0.75 7.5C1.16421 7.5 1.5 7.16421 1.5 6.75L1.5 4.74123C1.68427 4.85531 1.90954 4.98403 2.18108 5.1392L4.35618 6.38211C5.14228 6.83131 5.53533 7.05591 5.85763 7.02102C6.13877 6.99059 6.39389 6.84254 6.5598 6.61354C6.75 6.35101 6.75 5.89832 6.75 4.99292V4.89109C6.87849 4.96628 7.02183 5.04819 7.18108 5.13919L9.35618 6.3821C10.1423 6.8313 10.5353 7.0559 10.8576 7.02101C11.1388 6.99058 11.3939 6.84253 11.5598 6.61352C11.75 6.351 11.75 5.89831 11.75 4.99291V2.50709C11.75 1.60169 11.75 1.149 11.5598 0.886476C11.3939 0.657473 11.1388 0.509424 10.8576 0.478988C10.5353 0.444097 10.1423 0.668698 9.35618 1.1179L7.18108 2.36081C7.02182 2.45181 6.87849 2.53372 6.75 2.60891V2.5071C6.75 1.60171 6.75 1.14901 6.5598 0.886487C6.39389 0.657484 6.13877 0.509435 5.85763 0.478999C5.53533 0.444109 5.14228 0.668709 4.35618 1.11791L2.18108 2.36082C1.90954 2.51599 1.68427 2.64471 1.5 2.75879L1.5 0.75C1.5 0.335786 1.16421 0 0.75 0C0.335786 0 0 0.335786 0 0.75Z" fill="currentColor"/>
</svg>
