<svg preserveAspectRatio="xMidYMid meet" width="100%" height="100%" overflow="visible" style="display: block;" viewBox="0 0 12.5 12.5" fill="none" xmlns="http://www.w3.org/2000/svg">
<path id="icon" fill-rule="evenodd" clip-rule="evenodd" d="M1.5 1.5H3.99902C3.99903 1.50755 3.99926 1.51531 3.99949 1.52329L3.99949 1.52331C3.99974 1.53188 4 1.54071 4 1.5498V3.9502C4 3.95909 3.99974 3.96772 3.99949 3.97612L3.99949 3.97613L3.99949 3.97614L3.99949 3.97623C3.99926 3.98403 3.99903 3.99162 3.99902 3.99902C3.99162 3.99903 3.98403 3.99926 3.97623 3.99949L3.97614 3.99949L3.97613 3.99949L3.97612 3.99949C3.96772 3.99974 3.95909 4 3.9502 4H1.5498C1.54071 4 1.53188 3.99974 1.52331 3.99949L1.52329 3.99949C1.51531 3.99926 1.50755 3.99903 1.5 3.99902V1.5ZM5.5 3.95453V3.9502V1.5498V1.54547C5.5 1.41903 5.5 1.27973 5.49023 1.16016C5.47961 1.03045 5.45329 0.859262 5.36328 0.682617C5.24345 0.447501 5.0525 0.256546 4.81738 0.136719C4.64074 0.046714 4.46955 0.0203888 4.33984 0.00976573C4.22027 -3.865e-06 4.08096 -1.81193e-06 3.95452 5.15861e-08L3.9502 1.00801e-07H1.5498L1.54548 5.15824e-08C1.41903 -1.81206e-06 1.27973 -3.8657e-06 1.16016 0.00976573C1.03045 0.0203888 0.859262 0.046714 0.682617 0.136719C0.447501 0.256546 0.256546 0.447501 0.136719 0.682617C0.046714 0.859262 0.0203888 1.03045 0.00976573 1.16016C-3.86499e-06 1.27973 -1.81193e-06 1.41903 5.15861e-08 1.54548L1.00801e-07 1.5498V3.9502L5.15824e-08 3.95452C-1.81206e-06 4.08096 -3.8657e-06 4.22027 0.00976573 4.33984C0.0203888 4.46955 0.046714 4.64074 0.136719 4.81738C0.256546 5.0525 0.447501 5.24345 0.682617 5.36328C0.859262 5.45329 1.03045 5.47961 1.16016 5.49023C1.27973 5.5 1.41903 5.5 1.54547 5.5H1.5498H3.9502H3.95453C4.08097 5.5 4.22027 5.5 4.33984 5.49023C4.46955 5.47961 4.64074 5.45329 4.81738 5.36328C5.0525 5.24345 5.24345 5.0525 5.36328 4.81738C5.45329 4.64074 5.47961 4.46955 5.49023 4.33984C5.5 4.22027 5.5 4.08097 5.5 3.95453ZM9.00001 11.75V10.5H7.75001C7.3358 10.5 7.00001 10.1642 7.00001 9.75C7.00001 9.33579 7.3358 9 7.75001 9H9.00001V7.75C9.00001 7.33579 9.3358 7 9.75001 7C10.1642 7 10.5 7.33579 10.5 7.75V9H11.75C12.1642 9 12.5 9.33579 12.5 9.75C12.5 10.1642 12.1642 10.5 11.75 10.5H10.5V11.75C10.5 12.1642 10.1642 12.5 9.75001 12.5C9.3358 12.5 9.00001 12.1642 9.00001 11.75ZM3.99903 8.5H1.50001V10.999C1.50757 10.999 1.51534 10.9993 1.52333 10.9995H1.52336C1.53192 10.9997 1.54073 11 1.54981 11H3.9502C3.95909 11 3.96773 10.9997 3.97612 10.9995C3.98396 10.9993 3.99159 10.999 3.99903 10.999C3.99903 10.9947 3.99911 10.9904 3.99922 10.9859C3.9993 10.9827 3.9994 10.9794 3.9995 10.9761C3.99975 10.9677 4.00001 10.9591 4.00001 10.9502V8.54981C4.00001 8.54071 3.99975 8.53188 3.9995 8.52331C3.99926 8.51533 3.99904 8.50756 3.99903 8.5ZM5.50001 10.9502V10.9545C5.50001 11.081 5.50001 11.2203 5.49024 11.3398C5.47962 11.4696 5.45329 11.6407 5.36329 11.8174C5.24346 12.0525 5.05251 12.2435 4.81739 12.3633C4.64074 12.4533 4.46956 12.4796 4.33985 12.4902C4.2203 12.5 4.08103 12.5 3.9546 12.5H3.95457H3.9502H1.54981H1.54544H1.54541C1.41899 12.5 1.27971 12.5 1.16016 12.4902C1.03045 12.4796 0.859268 12.4533 0.682624 12.3633C0.447508 12.2435 0.256552 12.0525 0.136725 11.8174C0.0467204 11.6407 0.0203953 11.4696 0.00977222 11.3398C2.63214e-06 11.2203 4.68508e-06 11.081 6.5485e-06 10.9545L6.59771e-06 10.9502V8.54981L6.54849e-06 8.54548C4.68493e-06 8.41904 2.63182e-06 8.27973 0.00977222 8.16016C0.0203953 8.03045 0.0467205 7.85926 0.136725 7.68262C0.256552 7.4475 0.447508 7.25655 0.682624 7.13672C0.859268 7.04671 1.03045 7.02039 1.16016 7.00977C1.27974 7 1.41904 7 1.54548 7H1.54981H3.9502H3.95453C4.08097 7 4.22028 7 4.33985 7.00977C4.46956 7.02039 4.64074 7.04671 4.81739 7.13672C5.05251 7.25655 5.24346 7.4475 5.36329 7.68262C5.45329 7.85926 5.47962 8.03045 5.49024 8.16016C5.50001 8.27972 5.50001 8.41902 5.50001 8.54546V8.54981V10.9502ZM8.49999 1.5H10.999C10.999 1.50757 10.9993 1.51533 10.9995 1.52332C10.9997 1.53189 11 1.54071 11 1.54981V3.9502C11 3.9591 10.9997 3.96774 10.9995 3.97614C10.9993 3.98397 10.999 3.9916 10.999 3.99903C10.9916 3.99903 10.984 3.99926 10.9761 3.99949C10.9677 3.99974 10.9591 4 10.9502 4H8.5498C8.5407 4 8.53188 3.99974 8.5233 3.99949C8.51532 3.99926 8.50755 3.99903 8.49999 3.99903V1.5ZM12.5 3.95449V3.9502V1.54981V1.54551C12.5 1.41906 12.5 1.27974 12.4902 1.16016C12.4796 1.03045 12.4533 0.859264 12.3633 0.68262C12.2434 0.447504 12.0525 0.256548 11.8174 0.136721C11.6407 0.0467163 11.4695 0.0203912 11.3398 0.00976811C11.2203 -1.48034e-06 11.081 5.72487e-07 10.9545 2.43578e-06L10.9502 2.48499e-06H8.5498L8.54547 2.43577e-06C8.41903 5.72073e-07 8.27972 -1.48152e-06 8.16015 0.00976811C8.03044 0.0203912 7.85926 0.0467164 7.68261 0.136721C7.44749 0.256548 7.25654 0.447504 7.13671 0.68262C7.04671 0.859264 7.02038 1.03045 7.00976 1.16016C6.99999 1.27973 6.99999 1.41903 6.99999 1.54548V1.54981V3.9502V3.95453C6.99999 4.08097 6.99999 4.22027 7.00976 4.33985C7.02038 4.46955 7.04671 4.64074 7.13671 4.81739C7.25654 5.0525 7.44749 5.24346 7.68261 5.36328C7.85926 5.45329 8.03044 5.47961 8.16015 5.49024C8.27972 5.50001 8.41903 5.5 8.54547 5.5H8.5498H10.9502H10.9545C11.081 5.5 11.2203 5.50001 11.3398 5.49024C11.4695 5.47961 11.6407 5.45329 11.8174 5.36328C12.0525 5.24346 12.2434 5.0525 12.3633 4.81739C12.4533 4.64074 12.4796 4.46955 12.4902 4.33985C12.5 4.22026 12.5 4.08094 12.5 3.95449Z" fill="currentColor"/>
</svg>
