<svg preserveAspectRatio="xMidYMid meet" width="100%" height="100%" overflow="visible" style="display: block;" viewBox="0 0 11.5 11.4999" fill="none" xmlns="http://www.w3.org/2000/svg">
<path id="icon" d="M3.21973 0.219661C3.51262 -0.0732248 3.98738 -0.0732158 4.28027 0.219661C4.57313 0.512558 4.57316 0.987327 4.28027 1.28021L2.56055 2.99993H7.25C9.59721 2.99994 11.5 4.90273 11.5 7.24993C11.5 9.5971 9.59718 11.4999 7.25 11.4999H3.75C3.33581 11.4999 3.00004 11.1641 3 10.7499C3 10.3357 3.33579 9.99993 3.75 9.99993H7.25C8.76875 9.99993 9.99996 8.76868 10 7.24993C10 5.73116 8.76878 4.49994 7.25 4.49993H2.56055L4.28027 6.21966C4.57314 6.51256 4.57315 6.98732 4.28027 7.28021C3.98739 7.57304 3.51261 7.57305 3.21973 7.28021L0.219727 4.28021C0.0790897 4.13957 1.74162e-05 3.94882 0 3.74993C1.58122e-09 3.55104 0.0790949 3.36031 0.219727 3.21966L3.21973 0.219661Z" fill="currentColor"/>
</svg>
